<svg width="165" height="20" viewBox="0 0 165 20" fill="none" xmlns="http://www.w3.org/2000/svg">
<g clip-path="url(#clip0_8_217)">
<g clip-path="url(#clip1_8_217)">
<path d="M23.1526 19.8056H31.1477L11.3422 0H3.34705L23.1526 19.8056Z" fill="#4338CA"/>
<path d="M15.4497 1.01328e-06L34.5419 19.0922V0H29.3752V6.02776L23.3474 0L15.4497 1.01328e-06Z" fill="#1D4ED8"/>
<path d="M0 0.663025V19.8055H5.16667V13.7777L11.1944 19.8055H19.1425L0 0.663025Z" fill="#6D28D9"/>
</g>
<path d="M39.9908 17V3.90909H45.3984C46.3786 3.90909 47.2244 4.10085 47.9361 4.48438C48.652 4.86364 49.2038 5.39418 49.5916 6.07599C49.9794 6.75355 50.1733 7.5419 50.1733 8.44105C50.1733 9.34446 49.9751 10.1349 49.5788 10.8125C49.1868 11.4858 48.6264 12.0078 47.8977 12.3786C47.169 12.7493 46.304 12.9347 45.3026 12.9347H41.9659V10.4418H44.7145C45.1918 10.4418 45.5902 10.3587 45.9098 10.1925C46.2337 10.0263 46.4787 9.79403 46.6449 9.49574C46.8111 9.19318 46.8942 8.84162 46.8942 8.44105C46.8942 8.03622 46.8111 7.68679 46.6449 7.39276C46.4787 7.09446 46.2337 6.86435 45.9098 6.70241C45.5859 6.54048 45.1875 6.45952 44.7145 6.45952H43.1548V17H39.9908ZM54.1491 17.1662C53.5227 17.1662 52.9666 17.0618 52.4808 16.853C51.9993 16.6399 51.6179 16.3203 51.3366 15.8942C51.0597 15.4638 50.9212 14.9247 50.9212 14.277C50.9212 13.7315 51.017 13.2713 51.2088 12.8963C51.4006 12.5213 51.6648 12.2166 52.0014 11.9822C52.3381 11.7479 52.7259 11.571 53.1648 11.4517C53.6037 11.3281 54.0724 11.245 54.571 11.2024C55.1293 11.1513 55.5788 11.098 55.9197 11.0426C56.2607 10.983 56.5078 10.8999 56.6612 10.7933C56.8189 10.6825 56.8977 10.527 56.8977 10.3267V10.2947C56.8977 9.96662 56.7848 9.71307 56.5589 9.53409C56.3331 9.35511 56.0284 9.26562 55.6449 9.26562C55.2315 9.26562 54.8991 9.35511 54.6477 9.53409C54.3963 9.71307 54.2365 9.96023 54.1683 10.2756L51.2855 10.1733C51.3707 9.5767 51.5902 9.04403 51.9439 8.57528C52.3018 8.10227 52.7919 7.73153 53.4141 7.46307C54.0405 7.19034 54.7926 7.05398 55.6705 7.05398C56.2969 7.05398 56.8743 7.12855 57.4027 7.2777C57.9311 7.42258 58.3913 7.63565 58.7834 7.9169C59.1754 8.19389 59.478 8.5348 59.6911 8.93963C59.9084 9.34446 60.017 9.80682 60.017 10.3267V17H57.0767V15.6321H57C56.8253 15.9645 56.6016 16.2457 56.3288 16.4759C56.0604 16.706 55.7429 16.8786 55.3764 16.9936C55.0142 17.1087 54.6051 17.1662 54.1491 17.1662ZM55.1143 15.1207C55.451 15.1207 55.7536 15.0526 56.022 14.9162C56.2947 14.7798 56.5121 14.5923 56.674 14.3537C56.8359 14.1108 56.9169 13.8295 56.9169 13.5099V12.5767C56.8274 12.6236 56.7188 12.6662 56.5909 12.7045C56.4673 12.7429 56.331 12.7791 56.1818 12.8132C56.0327 12.8473 55.8793 12.8771 55.7216 12.9027C55.5639 12.9283 55.4126 12.9517 55.2678 12.973C54.9737 13.0199 54.7223 13.0923 54.5135 13.1903C54.3089 13.2884 54.1513 13.4162 54.0405 13.5739C53.9339 13.7273 53.8807 13.9105 53.8807 14.1236C53.8807 14.4474 53.9957 14.6946 54.2259 14.8651C54.4602 15.0355 54.7564 15.1207 55.1143 15.1207ZM61.9283 17V7.18182H64.9645V8.97159H65.0668C65.2457 8.32386 65.5376 7.84233 65.9425 7.52699C66.3473 7.20739 66.8182 7.04759 67.3551 7.04759C67.5 7.04759 67.6491 7.05824 67.8026 7.07955C67.956 7.09659 68.0987 7.12429 68.2308 7.16264V9.87926C68.0817 9.82812 67.8857 9.78764 67.6428 9.75781C67.4041 9.72798 67.1911 9.71307 67.0036 9.71307C66.6328 9.71307 66.2983 9.79616 66 9.96236C65.706 10.1243 65.4737 10.3523 65.3033 10.6463C65.1371 10.9361 65.054 11.277 65.054 11.669V17H61.9283ZM75.5034 7.18182V9.48295H69.3095V7.18182H75.5034ZM70.6071 4.82955H73.7328V13.9126C73.7328 14.1044 73.7626 14.2599 73.8223 14.3793C73.8862 14.4943 73.9778 14.5774 74.0971 14.6286C74.2164 14.6754 74.3592 14.6989 74.5254 14.6989C74.6447 14.6989 74.7704 14.6882 74.9025 14.6669C75.0389 14.6413 75.1412 14.62 75.2093 14.603L75.6824 16.8594C75.5332 16.902 75.3223 16.9553 75.0495 17.0192C74.7811 17.0831 74.4593 17.1236 74.0843 17.1406C73.3514 17.1747 72.7228 17.0895 72.1987 16.8849C71.6788 16.6761 71.2804 16.3523 71.0034 15.9134C70.7306 15.4744 70.5985 14.9226 70.6071 14.2578V4.82955ZM79.0094 20.6818C78.6344 20.6818 78.2807 20.652 77.9483 20.5923C77.6159 20.5369 77.3304 20.4624 77.0918 20.3686L77.7821 18.0994C78.089 18.2017 78.3659 18.2614 78.6131 18.2784C78.8645 18.2955 79.0797 18.255 79.2587 18.157C79.4419 18.0632 79.5826 17.8949 79.6806 17.652L79.802 17.358L76.312 7.18182H79.5847L81.3936 14.1875H81.4959L83.3304 7.18182H86.6223L82.9213 17.9396C82.7424 18.4766 82.4888 18.9496 82.1607 19.3587C81.8368 19.772 81.4171 20.0959 80.9015 20.3303C80.3901 20.5646 79.7594 20.6818 79.0094 20.6818ZM87.8208 17V3.90909H96.9487V6.47869H90.9849V9.16335H96.4821V11.7393H90.9849V14.4304H96.9487V17H87.8208ZM108.454 7.18182L105.086 17H101.506L98.144 7.18182H101.436L103.245 13.9446H103.347L105.162 7.18182H108.454ZM113.926 17.1854C112.899 17.1854 112.013 16.983 111.267 16.5781C110.525 16.169 109.954 15.5874 109.554 14.8331C109.157 14.0746 108.959 13.1733 108.959 12.1293C108.959 11.1151 109.16 10.2287 109.56 9.47017C109.961 8.70739 110.525 8.11506 111.254 7.69318C111.983 7.26705 112.841 7.05398 113.83 7.05398C114.529 7.05398 115.168 7.16264 115.748 7.37997C116.327 7.5973 116.828 7.91903 117.25 8.34517C117.672 8.77131 118 9.29759 118.234 9.92401C118.469 10.5462 118.586 11.2599 118.586 12.0653V12.8452H110.052V11.0298H115.677C115.673 10.6974 115.594 10.4013 115.441 10.1413C115.287 9.88139 115.077 9.67898 114.808 9.53409C114.544 9.38494 114.239 9.31037 113.894 9.31037C113.545 9.31037 113.231 9.3892 112.954 9.54688C112.677 9.70028 112.458 9.91122 112.296 10.1797C112.134 10.4439 112.049 10.7443 112.04 11.081V12.9283C112.04 13.3288 112.119 13.6804 112.277 13.983C112.434 14.2812 112.658 14.5135 112.948 14.6797C113.238 14.8459 113.583 14.929 113.983 14.929C114.26 14.929 114.512 14.8906 114.738 14.8139C114.964 14.7372 115.157 14.6243 115.319 14.4751C115.481 14.326 115.603 14.1428 115.684 13.9254L118.554 14.0085C118.434 14.652 118.172 15.2124 117.768 15.6896C117.367 16.1626 116.841 16.5312 116.189 16.7955C115.537 17.0554 114.782 17.1854 113.926 17.1854ZM120.182 17V7.18182H123.218V8.97159H123.321C123.5 8.32386 123.792 7.84233 124.196 7.52699C124.601 7.20739 125.072 7.04759 125.609 7.04759C125.754 7.04759 125.903 7.05824 126.056 7.07955C126.21 7.09659 126.353 7.12429 126.485 7.16264V9.87926C126.336 9.82812 126.14 9.78764 125.897 9.75781C125.658 9.72798 125.445 9.71307 125.257 9.71307C124.887 9.71307 124.552 9.79616 124.254 9.96236C123.96 10.1243 123.728 10.3523 123.557 10.6463C123.391 10.9361 123.308 11.277 123.308 11.669V17H120.182ZM130.835 17.1406C130.11 17.1406 129.452 16.9531 128.859 16.5781C128.267 16.2031 127.794 15.6406 127.44 14.8906C127.087 14.1406 126.91 13.2095 126.91 12.0973C126.91 10.9425 127.093 9.99219 127.46 9.24645C127.826 8.50071 128.305 7.94886 128.898 7.59091C129.494 7.23295 130.136 7.05398 130.822 7.05398C131.337 7.05398 131.778 7.14347 132.145 7.32244C132.511 7.49716 132.814 7.72301 133.053 8C133.291 8.27699 133.472 8.56463 133.596 8.86293H133.66V3.90909H136.786V17H133.692V15.4084H133.596C133.464 15.7109 133.276 15.9943 133.033 16.2585C132.79 16.5227 132.486 16.7358 132.119 16.8977C131.757 17.0597 131.329 17.1406 130.835 17.1406ZM131.921 14.7053C132.3 14.7053 132.624 14.5987 132.893 14.3857C133.161 14.1683 133.368 13.8636 133.513 13.4716C133.658 13.0795 133.73 12.6193 133.73 12.0909C133.73 11.554 133.658 11.0916 133.513 10.7038C133.372 10.3161 133.165 10.0178 132.893 9.80895C132.624 9.60014 132.3 9.49574 131.921 9.49574C131.533 9.49574 131.205 9.60227 130.937 9.81534C130.668 10.0284 130.464 10.3288 130.323 10.7166C130.187 11.1044 130.119 11.5625 130.119 12.0909C130.119 12.6193 130.189 13.0795 130.33 13.4716C130.47 13.8636 130.673 14.1683 130.937 14.3857C131.205 14.5987 131.533 14.7053 131.921 14.7053ZM141.53 17.1662C140.904 17.1662 140.347 17.0618 139.862 16.853C139.38 16.6399 138.999 16.3203 138.718 15.8942C138.441 15.4638 138.302 14.9247 138.302 14.277C138.302 13.7315 138.398 13.2713 138.59 12.8963C138.781 12.5213 139.046 12.2166 139.382 11.9822C139.719 11.7479 140.107 11.571 140.546 11.4517C140.985 11.3281 141.453 11.245 141.952 11.2024C142.51 11.1513 142.96 11.098 143.301 11.0426C143.642 10.983 143.889 10.8999 144.042 10.7933C144.2 10.6825 144.279 10.527 144.279 10.3267V10.2947C144.279 9.96662 144.166 9.71307 143.94 9.53409C143.714 9.35511 143.409 9.26562 143.026 9.26562C142.612 9.26562 142.28 9.35511 142.029 9.53409C141.777 9.71307 141.617 9.96023 141.549 10.2756L138.666 10.1733C138.752 9.5767 138.971 9.04403 139.325 8.57528C139.683 8.10227 140.173 7.73153 140.795 7.46307C141.421 7.19034 142.173 7.05398 143.051 7.05398C143.678 7.05398 144.255 7.12855 144.784 7.2777C145.312 7.42258 145.772 7.63565 146.164 7.9169C146.556 8.19389 146.859 8.5348 147.072 8.93963C147.289 9.34446 147.398 9.80682 147.398 10.3267V17H144.458V15.6321H144.381C144.206 15.9645 143.982 16.2457 143.71 16.4759C143.441 16.706 143.124 16.8786 142.757 16.9936C142.395 17.1087 141.986 17.1662 141.53 17.1662ZM142.495 15.1207C142.832 15.1207 143.134 15.0526 143.403 14.9162C143.676 14.7798 143.893 14.5923 144.055 14.3537C144.217 14.1108 144.298 13.8295 144.298 13.5099V12.5767C144.208 12.6236 144.1 12.6662 143.972 12.7045C143.848 12.7429 143.712 12.7791 143.563 12.8132C143.414 12.8473 143.26 12.8771 143.102 12.9027C142.945 12.9283 142.794 12.9517 142.649 12.973C142.355 13.0199 142.103 13.0923 141.894 13.1903C141.69 13.2884 141.532 13.4162 141.421 13.5739C141.315 13.7273 141.262 13.9105 141.262 14.1236C141.262 14.4474 141.377 14.6946 141.607 14.8651C141.841 15.0355 142.137 15.1207 142.495 15.1207ZM150.869 20.6818C150.494 20.6818 150.14 20.652 149.808 20.5923C149.475 20.5369 149.19 20.4624 148.951 20.3686L149.642 18.0994C149.948 18.2017 150.225 18.2614 150.472 18.2784C150.724 18.2955 150.939 18.255 151.118 18.157C151.301 18.0632 151.442 17.8949 151.54 17.652L151.661 17.358L148.171 7.18182H151.444L153.253 14.1875H153.355L155.19 7.18182H158.482L154.781 17.9396C154.602 18.4766 154.348 18.9496 154.02 19.3587C153.696 19.772 153.276 20.0959 152.761 20.3303C152.249 20.5646 151.619 20.6818 150.869 20.6818ZM163.356 3.90909L163.062 12.9922H160.434L160.14 3.90909H163.356ZM161.745 17.1854C161.289 17.1854 160.897 17.0234 160.569 16.6996C160.245 16.3757 160.083 15.9837 160.083 15.5234C160.083 15.0717 160.245 14.6861 160.569 14.3665C160.897 14.0426 161.289 13.8807 161.745 13.8807C162.184 13.8807 162.569 14.0426 162.902 14.3665C163.238 14.6861 163.407 15.0717 163.407 15.5234C163.407 15.8303 163.328 16.1094 163.17 16.3608C163.017 16.6122 162.814 16.8125 162.563 16.9616C162.316 17.1108 162.043 17.1854 161.745 17.1854Z" fill="#1D4ED8"/>
</g>
<defs>
<clipPath id="clip0_8_217">
<rect width="165" height="20" fill="white"/>
</clipPath>
<clipPath id="clip1_8_217">
<rect width="35" height="20" fill="white"/>
</clipPath>
</defs>
</svg>
